<?xml version="1.0" encoding="utf-8"?>
<!-- Generator: Adobe Illustrator 19.2.1, SVG Export Plug-In . SVG Version: 6.00 Build 0)  -->
<svg version="1.1" id="レイヤー_1" xmlns="http://www.w3.org/2000/svg" xmlns:xlink="http://www.w3.org/1999/xlink" x="0px"
	 y="0px" viewBox="0 0 150 129.5" style="enable-background:new 0 0 150 129.5;" xml:space="preserve">
<style type="text/css">
	.st0{fill:#0F9D58;}
	.st1{fill:#57BB8A;}
	.st2{fill:#F7F7F7;}
	.st3{fill:#F1F1F1;}
	.st4{fill:#F4B400;}
	.st5{opacity:0.2;fill:#FFFFFF;enable-background:new    ;}
	.st6{opacity:0.2;fill:#BF360C;enable-background:new    ;}
	.st7{fill:url(#SVGID_1_);}
	.st8{opacity:0.2;fill:#263238;enable-background:new    ;}
	.st9{fill:url(#SVGID_2_);}
</style>
<g>
	<path class="st0" d="M13.6,13.6h122.7v102.3H13.6V13.6z"/>
	<path class="st1" d="M102.3,68.2c4.2,0,7.7-3.4,7.7-7.7s-3.4-7.7-7.7-7.7c-4.2,0-7.7,3.4-7.7,7.7S98,68.2,102.3,68.2z M102.3,73.3
		c-8.2,0-17,4.3-17,9.7v5.6h34.1V83C119.3,77.6,110.5,73.3,102.3,73.3z M47.7,68.2c4.2,0,7.7-3.4,7.7-7.7s-3.4-7.7-7.7-7.7
		s-7.7,3.4-7.7,7.7S43.5,68.2,47.7,68.2z M47.7,73.3c-8.2,0-17,4.3-17,9.7v5.6h34.1V83C64.8,77.6,55.9,73.3,47.7,73.3z"/>
	<path class="st2" d="M75,61.4c5.7,0,10.2-4.6,10.2-10.2S80.7,40.9,75,40.9s-10.2,4.6-10.2,10.2S69.3,61.4,75,61.4z M75,68.2
		c-11.5,0-23.9,6.1-23.9,13.6v6.8h47.7v-6.8C98.9,74.3,86.5,68.2,75,68.2z"/>
	<path class="st3" d="M88.6,109.1h30.7v6.8H88.6V109.1z"/>
	<path class="st4" d="M139.8,0H10.2C4.6,0,0,4.6,0,10.2v109.1c0,5.7,4.6,10.2,10.2,10.2h129.5c5.7,0,10.2-4.6,10.2-10.2V10.2
		C150,4.6,145.4,0,139.8,0z M136.4,115.9H13.6V13.6h122.7V115.9z"/>
	<path class="st5" d="M139.8,0H10.2C4.6,0,0,4.6,0,10.2v0.9C0,5.4,4.6,0.9,10.2,0.9h129.5c5.7,0,10.2,4.6,10.2,10.2v-0.9
		C150,4.6,145.4,0,139.8,0z"/>
	<path class="st6" d="M139.8,128.7H10.2c-5.7,0-10.2-4.6-10.2-10.2v0.9c0,5.7,4.6,10.2,10.2,10.2h129.5c5.7,0,10.2-4.6,10.2-10.2
		v-0.9C150,124.1,145.4,128.7,139.8,128.7z"/>
	
		<linearGradient id="SVGID_1_" gradientUnits="userSpaceOnUse" x1="-26.8161" y1="183.7876" x2="-26.8161" y2="183.7278" gradientTransform="matrix(738.1628 0 0 -227.2727 19905.3965 41886)">
		<stop  offset="0" style="stop-color:#BF360C;stop-opacity:0.2"/>
		<stop  offset="1" style="stop-color:#BF360C;stop-opacity:2.000000e-02"/>
	</linearGradient>
	<path class="st7" d="M119.3,115.9H88.6l13.6,13.6h30.7L119.3,115.9z"/>
	<path class="st8" d="M13.6,12.8h122.7v0.9H13.6V12.8z"/>
	<path class="st5" d="M13.6,115.9h122.7v0.9H13.6V115.9z"/>
	
		<radialGradient id="SVGID_2_" cx="-24.9918" cy="175.0826" r="0.2866" gradientTransform="matrix(2159.1001 0 0 -2159.0908 53965 378022.375)" gradientUnits="userSpaceOnUse">
		<stop  offset="0" style="stop-color:#FFFFFF;stop-opacity:0.1"/>
		<stop  offset="1" style="stop-color:#FFFFFF;stop-opacity:0"/>
	</radialGradient>
	<path class="st9" d="M139.8,0H10.2C4.6,0,0,4.6,0,10.2v109.1c0,5.7,4.6,10.2,10.2,10.2h129.5c5.7,0,10.2-4.6,10.2-10.2V10.2
		C150,4.6,145.4,0,139.8,0z"/>
</g>
</svg>
